<?xml version="1.0" encoding="utf-8"?>
<!-- Generator: Adobe Illustrator 28.0.0, SVG Export Plug-In . SVG Version: 6.00 Build 0)  -->
<svg version="1.1" id="Layer_1" xmlns="http://www.w3.org/2000/svg" xmlns:xlink="http://www.w3.org/1999/xlink" x="0px" y="0px"
	 viewBox="0 0 194 46" style="enable-background:new 0 0 194 46;" xml:space="preserve">
<style type="text/css">
	.st0{fill:#FF0000;}
	.st1{fill:#FFFFFF;}
	.st2{fill:#282828;}
	.st3{fill:#0078AE;}
	.st4{fill:none;}
	.st5{fill:#E31937;}
	.st6{fill-rule:evenodd;clip-rule:evenodd;fill:#F5BE0B;}
	.st7{clip-path:url(#SVGID_00000091737633145171451140000017613261226054028714_);fill-rule:evenodd;clip-rule:evenodd;}
</style>
<g>
	<g id="g7433">
		<path id="path7429" class="st0" d="M20.1,18.2c-0.2-0.8-0.9-1.5-1.7-1.7c-1.5-0.4-7.6-0.4-7.6-0.4s-6.1,0-7.6,0.4
			c-0.8,0.2-1.5,0.9-1.7,1.7C1,19.7,1,22.9,1,22.9s0,3.2,0.4,4.7c0.2,0.8,0.9,1.5,1.7,1.7c1.5,0.4,7.6,0.4,7.6,0.4s6.1,0,7.6-0.4
			c0.8-0.2,1.5-0.9,1.7-1.7c0.4-1.5,0.4-4.7,0.4-4.7S20.5,19.7,20.1,18.2L20.1,18.2z"/>
		<path id="polygon7431" class="st1" d="M8.8,20v5.8l5.1-2.9L8.8,20z"/>
	</g>
	<g id="g7451">
		<g id="g7449">
			<path id="path7435" class="st2" d="M29.3,28.5c-0.4-0.3-0.7-0.7-0.8-1.2c-0.2-0.5-0.2-1.3-0.2-2.2v-1.2c0-0.9,0.1-1.7,0.3-2.2
				c0.2-0.6,0.5-1,0.9-1.2c0.4-0.3,0.9-0.4,1.6-0.4c0.6,0,1.1,0.1,1.5,0.4c0.4,0.3,0.7,0.7,0.8,1.2c0.2,0.5,0.3,1.3,0.3,2.2v1.2
				c0,0.9-0.1,1.6-0.3,2.2c-0.2,0.5-0.5,1-0.8,1.2c-0.4,0.3-0.9,0.4-1.6,0.4C30.3,28.9,29.7,28.8,29.3,28.5L29.3,28.5z M31.5,27.2
				c0.1-0.3,0.2-0.7,0.2-1.4v-2.7c0-0.6,0-1.1-0.2-1.3c-0.1-0.3-0.3-0.4-0.6-0.4c-0.3,0-0.5,0.1-0.5,0.4c-0.1,0.3-0.2,0.7-0.2,1.3
				v2.7c0,0.6,0,1.1,0.2,1.4c0.1,0.3,0.3,0.4,0.6,0.4C31.2,27.6,31.4,27.4,31.5,27.2z"/>
			<path id="path7437" class="st2" d="M59,25.1v0.4c0,0.5,0,1,0,1.2c0,0.3,0.1,0.5,0.2,0.6c0.1,0.1,0.3,0.2,0.5,0.2
				c0.3,0,0.5-0.1,0.6-0.3c0.1-0.2,0.2-0.6,0.2-1.1l1.7,0.1c0,0.1,0,0.2,0,0.3c0,0.8-0.2,1.4-0.6,1.8c-0.4,0.4-1,0.6-1.8,0.6
				c-0.9,0-1.6-0.3-2-0.9c-0.4-0.6-0.6-1.5-0.6-2.8v-1.5c0-1.3,0.2-2.2,0.6-2.8c0.4-0.6,1.1-0.9,2-0.9c0.7,0,1.2,0.1,1.5,0.4
				c0.4,0.2,0.6,0.6,0.7,1.1c0.1,0.5,0.2,1.2,0.2,2.1v1.5L59,25.1L59,25.1L59,25.1z M59.2,21.5c-0.1,0.1-0.2,0.3-0.2,0.6
				c0,0.3,0,0.7,0,1.3V24h1.4v-0.6c0-0.5,0-1,0-1.3c0-0.3-0.1-0.5-0.2-0.6c-0.1-0.1-0.3-0.2-0.5-0.2C59.5,21.3,59.3,21.4,59.2,21.5
				L59.2,21.5z"/>
			<path id="path7439" class="st2" d="M24.6,25L22.5,17h1.9l0.8,3.6c0.2,0.9,0.3,1.6,0.4,2.3h0c0.1-0.5,0.2-1.2,0.4-2.2l0.8-3.6h1.9
				L26.6,25v3.8h-1.9L24.6,25L24.6,25L24.6,25z"/>
			<path id="path7441" class="st2" d="M39.8,20.2v8.6h-1.5l-0.2-1h0c-0.4,0.8-1,1.2-1.8,1.2c-0.6,0-1-0.2-1.3-0.6
				c-0.3-0.4-0.4-0.9-0.4-1.8v-6.4h1.9v6.3c0,0.4,0,0.7,0.1,0.8c0.1,0.2,0.2,0.2,0.4,0.2c0.2,0,0.3,0,0.5-0.2
				c0.2-0.1,0.3-0.2,0.3-0.4v-6.8L39.8,20.2L39.8,20.2z"/>
			<path id="path7443" class="st2" d="M49.7,20.2v8.6h-1.5l-0.2-1h0c-0.4,0.8-1,1.2-1.8,1.2c-0.6,0-1-0.2-1.3-0.6
				c-0.3-0.4-0.4-0.9-0.4-1.8v-6.4h1.9v6.3c0,0.4,0,0.7,0.1,0.8c0.1,0.2,0.2,0.2,0.4,0.2c0.2,0,0.3,0,0.5-0.2
				c0.2-0.1,0.3-0.2,0.3-0.4v-6.8L49.7,20.2L49.7,20.2z"/>
			<path id="path7445" class="st2" d="M45.1,18.6h-1.9v10.2h-1.9V18.6h-1.9V17h5.7V18.6z"/>
			<path id="path7447" class="st2" d="M56.1,21.6c-0.1-0.5-0.3-0.9-0.6-1.2S54.9,20,54.4,20c-0.4,0-0.7,0.1-1,0.3
				c-0.3,0.2-0.5,0.5-0.7,0.8h0v-4.5h-1.9v12.1h1.6l0.2-0.8h0c0.1,0.3,0.4,0.5,0.7,0.7c0.3,0.2,0.6,0.3,1,0.3c0.7,0,1.1-0.3,1.4-0.9
				c0.3-0.6,0.5-1.5,0.5-2.8v-1.3C56.2,22.8,56.2,22.1,56.1,21.6L56.1,21.6z M54.3,25c0,0.6,0,1.1-0.1,1.5c0,0.4-0.1,0.6-0.3,0.8
				c-0.1,0.1-0.3,0.2-0.5,0.2c-0.2,0-0.3,0-0.4-0.1c-0.1-0.1-0.2-0.2-0.3-0.3v-4.9c0.1-0.2,0.2-0.4,0.3-0.6c0.2-0.1,0.3-0.2,0.5-0.2
				c0.2,0,0.4,0.1,0.5,0.2c0.1,0.2,0.2,0.4,0.2,0.8c0,0.4,0.1,0.9,0.1,1.5L54.3,25L54.3,25z"/>
		</g>
	</g>
</g>
<g>
	<path class="st3" d="M78.1,30.6h-2.5c-0.1,0-0.1,0.1-0.1,0.1v5.6c0,0.1,0.1,0.1,0.1,0.1h2.5c2,0,3.2-1.2,3.2-2.9
		C81.3,31.7,80.1,30.6,78.1,30.6 M78.1,34.9h-0.8v-2.8h0.9c0.9,0,1.4,0.5,1.4,1.4C79.5,34.2,79,34.9,78.1,34.9"/>
	<path class="st3" d="M92.3,32.1c-0.7,0-1.2,0.4-1.5,0.7c-0.2-0.5-0.6-0.7-1.2-0.7c-0.7,0-1.2,0.4-1.4,0.6v-0.3
		c0-0.1-0.1-0.1-0.1-0.1h-1.3c-0.1,0-0.1,0.1-0.1,0.1v4c0,0.1,0.1,0.1,0.1,0.1H88c0.1,0,0.1-0.1,0.1-0.1v-2.5l0,0
		c0.1-0.1,0.3-0.3,0.6-0.3c0.3,0,0.5,0.2,0.5,0.5v2.3c0,0.1,0.1,0.1,0.1,0.1h1.3c0.1,0,0.1-0.1,0.1-0.1v-2.5
		c0.1-0.1,0.3-0.3,0.7-0.3c0.3,0,0.5,0.2,0.5,0.5v2.3c0,0.1,0.1,0.1,0.1,0.1h1.3c0.1,0,0.1-0.1,0.1-0.1v-2.9
		C93.6,32.6,93.1,32.1,92.3,32.1"/>
	<path class="st3" d="M95.7,32.2h-1.3c-0.1,0-0.1,0.1-0.1,0.1v4c0,0.1,0.1,0.1,0.1,0.1h1.3c0.1,0,0.1-0.1,0.1-0.1v-4
		C95.8,32.3,95.8,32.2,95.7,32.2"/>
	<path class="st3" d="M95.1,30.1c-0.5,0-0.9,0.4-0.9,0.9c0,0.5,0.4,0.9,0.9,0.9c0.5,0,0.9-0.4,0.9-0.9C96,30.5,95.6,30.1,95.1,30.1"
		/>
	<path class="st3" d="M99.6,32.1c-0.8,0-1.3,0.4-1.5,0.6v-0.3c0-0.1-0.1-0.1-0.1-0.1h-1.3c-0.1,0-0.1,0.1-0.1,0.1v4
		c0,0.1,0.1,0.1,0.1,0.1h1.3c0.1,0,0.1-0.1,0.1-0.1v-2.5c0.1-0.1,0.3-0.3,0.7-0.3c0.4,0,0.6,0.2,0.6,0.6v2.2c0,0.1,0.1,0.1,0.1,0.1
		h1.3c0.1,0,0.1-0.1,0.1-0.1v-2.9C101,32.6,100.4,32.1,99.6,32.1"/>
	<path class="st3" d="M83.9,32.1c-1.2,0-2.2,1-2.2,2.2c0,1.2,1,2.2,2.2,2.2s2.2-1,2.2-2.2C86.1,33.1,85.1,32.1,83.9,32.1 M83.9,35.1
		c-0.4,0-0.8-0.3-0.8-0.8c0-0.4,0.3-0.8,0.8-0.8c0.4,0,0.8,0.3,0.8,0.8S84.3,35.1,83.9,35.1"/>
	<path class="st3" d="M103.7,32.1c-1.2,0-2.2,1-2.2,2.2c0,1.2,1,2.2,2.2,2.2c1.2,0,2.2-1,2.2-2.2C105.9,33.1,104.9,32.1,103.7,32.1
		 M103.7,35.1c-0.4,0-0.8-0.3-0.8-0.8c0-0.4,0.3-0.8,0.8-0.8c0.4,0,0.8,0.3,0.8,0.8C104.4,34.7,104.1,35.1,103.7,35.1"/>
	<path class="st3" d="M107.2,30.8L107.2,30.8C107.2,30.8,107.2,30.8,107.2,30.8C107.2,30.8,107.2,30.8,107.2,30.8L107.2,30.8
		c-0.1-0.5-0.6-0.8-1.1-0.7c-0.5,0.1-0.8,0.5-0.7,1c0.1,0.4,0.4,0.6,0.8,0.7c0,0.2-0.2,0.3-0.3,0.3c-0.1,0,0,0.1,0,0.1l0.1,0.1
		c0,0,0.1,0.1,0.1,0.1C107.1,32.1,107.3,31.2,107.2,30.8z"/>
	<path class="st3" d="M108.3,33.5c0-0.2,0.2-0.2,0.5-0.2c0.5,0,0.8,0.1,1.1,0.4c0,0,0.1,0,0.1,0c0,0,0.1,0,0.1-0.1l0.4-0.8
		c0-0.1,0-0.2-0.1-0.2c-0.4-0.2-0.9-0.5-1.8-0.5c-1.3,0-2,0.6-1.9,1.5c0.2,1.6,2.6,1,2.6,1.6c0,0.1-0.2,0.2-0.6,0.2
		c-0.5,0-1-0.2-1.4-0.5c0,0-0.1,0-0.1,0c0,0-0.1,0-0.1,0.1l-0.5,0.8c0,0.1,0,0.2,0,0.2c0.5,0.3,1.3,0.5,1.9,0.5
		c1.3,0,2.1-0.6,2.1-1.5C110.8,33.4,108.3,33.9,108.3,33.5"/>
	<g>
		<path class="st4" d="M86,16.9c-0.5,0-1.1,0.2-1.5,0.6c-0.4,0.4-0.6,0.9-0.6,1.5c0,0.5,0.2,1.1,0.6,1.5c0.4,0.4,0.9,0.6,1.5,0.6
			s1.1-0.2,1.5-0.6c0.4-0.4,0.6-0.9,0.6-1.5c0-0.5-0.2-1.1-0.6-1.5C87.1,17.1,86.5,16.9,86,16.9z"/>
		<path class="st4" d="M92.1,21.1c0.5,0,1.1-0.2,1.5-0.6c0.4-0.4,0.6-0.9,0.6-1.5c0-0.5-0.2-1.1-0.6-1.5c-0.4-0.4-0.9-0.6-1.5-0.6
			c-0.5,0-1.1,0.2-1.5,0.6C90.2,18,90,18.5,90,19c0,0.5,0.2,1.1,0.6,1.5C91,20.9,91.5,21.1,92.1,21.1z"/>
		<path class="st4" d="M98.5,2.4c-0.2-0.2-0.4-0.3-0.6-0.3c-0.2,0-0.5,0.1-0.6,0.3l-6,6l-1.8,1.8l8.4,8.4l0.7-0.7l7-7
			c0.3-0.3,0.3-0.9,0-1.3L98.5,2.4z"/>
		<path class="st1" d="M106.2,9L99,1.9c-0.3-0.3-0.7-0.5-1.1-0.5S97,1.6,96.7,1.9l-6,6l-10,10c-0.6,0.6-0.6,1.6,0,2.3l7.2,7.2
			c0.3,0.3,0.7,0.5,1.1,0.5s0.8-0.2,1.1-0.5l9-9l7-7C106.8,10.7,106.8,9.6,106.2,9z"/>
		<path class="st5" d="M105.7,9.5l-7.2-7.2c-0.3-0.3-0.9-0.3-1.3,0l-7.7,7.7l8.4,8.4l7.7-7.7C106,10.4,106,9.9,105.7,9.5z
			 M99.4,11.6c-0.4,0.4-0.9,0.6-1.5,0.6c-0.5,0-1.1-0.2-1.5-0.6c-0.4-0.4-0.6-0.9-0.6-1.5s0.2-1.1,0.6-1.5c0.4-0.4,0.9-0.6,1.5-0.6
			c0.5,0,1.1,0.2,1.5,0.6c0.4,0.4,0.6,0.9,0.6,1.5C100,10.7,99.8,11.2,99.4,11.6z"/>
		<path class="st3" d="M81.3,18.4c-0.3,0.3-0.3,0.9,0,1.3l7.2,7.2c0.2,0.2,0.4,0.3,0.6,0.3c0.2,0,0.5-0.1,0.6-0.3l7.7-7.7L89,10.6
			L81.3,18.4z M87.5,20.4C87.1,20.8,86.5,21,86,21c-0.5,0-1.1-0.2-1.5-0.6c-0.4-0.4-0.6-0.9-0.6-1.5c0-0.5,0.2-1.1,0.6-1.5
			c0.4-0.4,0.9-0.6,1.5-0.6s1.1,0.2,1.5,0.6c0.4,0.4,0.6,0.9,0.6,1.5C88.1,19.5,87.9,20,87.5,20.4z M90.6,17.6
			c0.4-0.4,0.9-0.6,1.5-0.6c0.5,0,1.1,0.2,1.5,0.6c0.4,0.4,0.6,0.9,0.6,1.5c0,0.5-0.2,1.1-0.6,1.5c-0.4,0.4-0.9,0.6-1.5,0.6
			c-0.5,0-1.1-0.2-1.5-0.6C90.2,20.1,90,19.6,90,19C90,18.5,90.2,18,90.6,17.6z"/>
	</g>
	<path class="st3" d="M90.2,44.2c0,0.1,0.1,0.1,0.1,0.1h3.4c0.1,0,0.1-0.1,0.1-0.1v-1.1c0-0.1-0.1-0.1-0.1-0.1h-1.4
		c0,0,1.2-1.4,1.5-1.7c0.1-0.1,0.1-0.1,0.1-0.3c0,0,0-0.7,0-0.7c0-0.1-0.1-0.1-0.1-0.1h-3.4c-0.1,0-0.1,0.1-0.1,0.1v0.9v0.2
		c0,0.1,0.1,0.1,0.1,0.1h0.2h1.3c0,0-1.5,1.7-1.5,1.7c-0.1,0.1-0.1,0.2-0.1,0.3L90.2,44.2L90.2,44.2z"/>
	<path class="st3" d="M94.4,44.2c0,0.1,0.1,0.1,0.1,0.1H98c0.1,0,0.1-0.1,0.1-0.1v-1.1c0-0.1-0.1-0.1-0.1-0.1h-1.4
		c0,0,1.2-1.4,1.4-1.7c0.1-0.1,0.1-0.1,0.1-0.3c0,0,0-0.7,0-0.7c0-0.1-0.1-0.1-0.1-0.1h-3.4c-0.1,0-0.1,0.1-0.1,0.1v0.9v0.2
		c0,0.1,0.1,0.1,0.1,0.1h0.2H96c0,0-1.5,1.7-1.5,1.7c-0.1,0.1-0.1,0.2-0.1,0.3L94.4,44.2L94.4,44.2z"/>
	<path class="st3" d="M100.8,43.1c-0.5,0-0.8-0.4-0.8-0.8c0-0.5,0.4-0.8,0.8-0.8s0.8,0.4,0.8,0.8C101.7,42.7,101.3,43.1,100.8,43.1
		 M103.1,40.1h-1.3c-0.1,0-0.1,0.1-0.1,0.1v0.3c-0.3-0.3-0.8-0.5-1.3-0.5c-1.1,0-2,1-2,2.2s0.9,2.2,2,2.2c0.5,0,0.9-0.2,1.3-0.5v0.2
		c0,0.1,0.1,0.1,0.1,0.1h1.3c0.1,0,0.1-0.1,0.1-0.1v-4C103.2,40.2,103.2,40.1,103.1,40.1"/>
	<path class="st3" d="M89.5,40.1h-1.3c-0.1,0-0.1,0.1-0.1,0.1v3.9c0,0.1,0.1,0.1,0.1,0.1h1.3c0.1,0,0.1-0.1,0.1-0.1v-3.9
		C89.7,40.2,89.6,40.1,89.5,40.1"/>
	<path class="st3" d="M88.9,38.1c-0.5,0-0.9,0.4-0.9,0.9c0,0.5,0.4,0.9,0.9,0.9c0.5,0,0.9-0.4,0.9-0.9
		C89.8,38.5,89.4,38.1,88.9,38.1"/>
	<path class="st3" d="M85.1,41.4h-0.3V40h0.3c0.7,0,0.8,0.3,0.8,0.6C86,41,85.8,41.4,85.1,41.4 M86.8,39c-0.5-0.4-1.1-0.5-2-0.5
		l-1.6,0c-0.1,0-0.1,0.1-0.1,0.1v5.6c0,0.1,0.1,0.1,0.1,0.1h1.3h0.2c0.1,0,0.1-0.1,0.1-0.1v-0.2v-1.2c0.8,0,1.5,0,2.1-0.5
		c0.4-0.3,0.7-0.9,0.7-1.7C87.6,40.1,87.3,39.3,86.8,39"/>
	<g>
		<path class="st3" d="M103.8,40.8c-0.2,0-0.3-0.1-0.3-0.3c0-0.2,0.1-0.3,0.3-0.3c0.2,0,0.3,0.1,0.3,0.3
			C104.1,40.6,103.9,40.8,103.8,40.8z M103.8,40.2c-0.2,0-0.3,0.1-0.3,0.3c0,0.1,0.1,0.3,0.3,0.3c0.2,0,0.3-0.1,0.3-0.3
			C104,40.3,103.9,40.2,103.8,40.2z M103.8,40.6l-0.1-0.1h-0.1v0.1h-0.1v-0.4h0.1c0.1,0,0.1,0,0.1,0.1c0,0.1-0.1,0.1-0.1,0.1
			L103.8,40.6L103.8,40.6z M103.8,40.3L103.8,40.3l-0.1,0.1h0.1C103.8,40.5,103.8,40.4,103.8,40.3C103.8,40.3,103.8,40.3,103.8,40.3
			z"/>
	</g>
</g>
<path d="M142.5,20h5.7c2.2,0,2.8,1,2.8,1.8V22c0,1-0.8,1.5-1.4,1.5c0.9,0.1,1.8,0.7,1.8,1.9v0.1c0,1.1-0.6,2.3-3.1,2.3h-5.7V20
	L142.5,20z M191.4,22.3c-1.1,0-1.4-0.6-1.4-1.2V21c0-0.5,0.3-1.1,1.4-1.1h0.2c1.2,0,1.4,0.6,1.4,1.1v0.1c0,0.5-0.4,1.2-1.4,1.2
	H191.4L191.4,22.3z M191.5,22c1,0,1.1-0.5,1.1-0.9c0-0.4-0.1-0.9-1.1-0.9h0c-1,0-1.1,0.5-1.1,0.9C190.4,21.5,190.5,22,191.5,22
	L191.5,22L191.5,22z M191.2,21.7h-0.5v-1.2h1c0.4,0,0.5,0.1,0.5,0.3v0c0,0.2-0.1,0.2-0.2,0.3c0.2,0,0.3,0.1,0.3,0.3v0.2
	c0,0.1,0,0.1,0,0.1v0h-0.5c0,0,0,0,0-0.1v-0.1c0-0.1,0-0.2-0.2-0.2h-0.4L191.2,21.7L191.2,21.7L191.2,21.7z M191.7,21
	c0.1,0,0.1,0,0.1-0.1c0-0.1,0-0.1-0.1-0.1h-0.4V21H191.7L191.7,21z M187.2,28h-0.4c-2.9,0-3.6-1.6-3.6-3v-0.1c0-1.3,0.6-3,3.4-3h0.5
	c3,0,3.5,1.7,3.5,3.3v0.2h-5.3c0.1,0.7,0.5,1.2,1.8,1.2c1.2,0,1.3-0.5,1.4-0.6h2.1C190.6,26.5,190.2,28,187.2,28L187.2,28z
	 M185.4,24.3h3.1c0-0.4-0.2-1-1.5-1C185.9,23.2,185.5,23.7,185.4,24.3L185.4,24.3z M175.3,22h2v0.9c0.2-0.3,1-1.1,2.3-1.1h0.1
	c1.7,0,2.5,1.2,2.5,2.2v3.8h-2v-3c0-0.7-0.4-1.3-1.4-1.3c-1,0-1.5,0.7-1.5,1.4v3h-2V22L175.3,22z M174.1,21.4h-2.1v-1.5h2.1V21.4
	L174.1,21.4z M174.1,27.8h-2V22h2V27.8L174.1,27.8z M168.8,19.9h2v7.9h-2V19.9L168.8,19.9z M164.4,28H164c-2.9,0-3.6-1.6-3.6-3v-0.1
	c0-1.3,0.6-3,3.4-3h0.5c3,0,3.5,1.7,3.5,3.3v0.2h-5.3c0.1,0.7,0.5,1.2,1.8,1.2c1.2,0,1.3-0.5,1.4-0.6h2.1
	C167.8,26.5,167.4,28,164.4,28L164.4,28z M162.5,24.3h3.1c0-0.4-0.2-1-1.5-1C163,23.2,162.7,23.7,162.5,24.3L162.5,24.3z M156.2,28
	h-0.4c-2.9,0-3.6-1.6-3.6-3v-0.1c0-1.3,0.6-3,3.4-3h0.5c3,0,3.5,1.7,3.5,3.3v0.2h-5.3c0.1,0.7,0.5,1.2,1.8,1.2
	c1.2,0,1.3-0.5,1.4-0.6h2.1C159.5,26.5,159.2,28,156.2,28L156.2,28z M154.3,24.3h3.1c0-0.4-0.2-1-1.5-1
	C154.8,23.2,154.4,23.7,154.3,24.3L154.3,24.3z M144.6,21.7v1.4h3.2c0.6,0,0.8-0.3,0.8-0.7v0c0-0.4-0.2-0.7-0.8-0.7H144.6
	L144.6,21.7z M144.6,24.6v1.5h3.4c0.8,0,1-0.4,1-0.8v0c0-0.4-0.2-0.7-1-0.7H144.6L144.6,24.6z"/>
<circle class="st6" cx="129.8" cy="23.2" r="8.5"/>
<g>
	<defs>
		<circle id="SVGID_1_" cx="129.8" cy="23.2" r="8.5"/>
	</defs>
	<clipPath id="SVGID_00000009580909863181612070000012396518767172330398_">
		<use xlink:href="#SVGID_1_"  style="overflow:visible;"/>
	</clipPath>
	
		<path style="clip-path:url(#SVGID_00000009580909863181612070000012396518767172330398_);fill-rule:evenodd;clip-rule:evenodd;" d="
		M123.5,29H136v0c-1.6,1.7-3.8,2.7-6.2,2.7C127.3,31.8,125.1,30.7,123.5,29L123.5,29z M121.2,23.2c0-0.8,0.1-1.5,0.3-2.2H138
		c0.2,0.7,0.3,1.5,0.3,2.2c0,0.8-0.1,1.5-0.3,2.2h-16.5C121.3,24.7,121.2,24,121.2,23.2L121.2,23.2z M123.5,17.4
		c1.6-1.7,3.8-2.7,6.3-2.7c2.5,0,4.7,1,6.2,2.7v0H123.5L123.5,17.4z"/>
</g>
</svg>
